<svg fill="none" height="200" viewBox="0 0 200 200" width="200" xmlns="http://www.w3.org/2000/svg"><g fill="#fff"><path clip-rule="evenodd" d="m76.8346 62.6619c2.2177-6.5093 13.3642-8.6119 24.8854-4.6804 11.521 3.9171 19.053 12.3994 16.835 18.9232-2.232 6.5093-13.365 8.6119-24.8855 4.6803-11.5209-3.9315-19.0527-12.3994-16.8349-18.9231zm18.8799 13.7819c8.4825 2.8947 16.5615 1.7426 18.0305-2.5778 1.469-4.3203-4.205-10.1672-12.702-13.0618-8.4824-2.8947-16.5614-1.7426-18.0303 2.5778-1.469 4.3203 4.2195 10.1672 12.7018 13.0618z" fill-rule="evenodd"/><path d="m36.0513 116.508s2.5634 2.822 6.7541 2.822c3.1395 0 5.6309-1.944 5.6309-4.983 0-3.507-3.0806-4.829-6.2347-6.183-3.3083-1.42-6.6976-2.874-6.6976-6.922 0-3.3551 2.9955-6.5377 7.5895-6.5377 4.1187 0 6.4229 2.3474 6.4229 2.3474l-.8641 1.3393s-2.1602-2.1746-5.53-2.1746c-3.7587 0-5.9909 2.5346-5.9909 4.9826 0 3.145 2.8645 4.354 5.8972 5.633 3.4111 1.44 7.035 2.969 7.035 7.443 0 3.644-2.8226 6.567-7.3302 6.567-4.9828 0-7.7334-3.139-7.7334-3.139z"/><path d="m52.7422 95.1219h1.6562l7.6182 20.4501c.432 1.195.9793 3.038.9793 3.038h.072s.5472-1.843.9793-3.038l7.6614-20.4501h1.6561l-9.4616 25.2881h-1.6993z"/><path clip-rule="evenodd" d="m91.2366 111.669h-10.7289l-3.2547 8.741h-1.6561l9.4616-25.2881h1.6705l9.4616 25.2881h-1.6562zm-5.3717-14.7325s-.5472 1.9441-.936 3.0386l-3.8739 10.2539h9.6487l-3.8307-10.2539c-.4032-1.0801-.9361-3.0386-.9361-3.0386z" fill-rule="evenodd"/><path d="m99.9493 102.351h1.5117v3.183c0 .835-.144 1.483-.144 1.483h.072c.62-1.699 3.14-5.098 7.662-5.098 4.695 0 5.962 2.78 5.962 7.042v11.449h-1.512v-10.901c0-3.14-.403-6.106-4.45-6.106-3.399 0-6.394 2.39-7.302 5.746-.216.763-.288 1.584-.288 2.462v8.814h-1.5117z"/><path clip-rule="evenodd" d="m127.081 126.516c3.86 0 6.869-1.843 6.869-6.206v-2.089c0-.835.144-1.483.144-1.483h-.072c-1.08 2.203-3.067 3.687-6.062 3.687-4.695 0-8.022-3.687-8.022-9.318s3.068-9.173 7.762-9.173c5.127 0 6.279 3.542 6.279 3.542h.072s-.101-.259-.101-.691v-2.419h1.513v17.944c0 5.53-3.975 7.69-8.267 7.69-1.987 0-3.902-.504-5.674-1.412l.72-1.339s2.232 1.267 4.839 1.267zm6.898-15.423c0-5.818-2.75-7.69-6.279-7.69-3.859 0-6.178 2.822-6.178 7.69 0 4.882 2.679 7.834 6.538 7.834 3.169 0 5.919-1.987 5.919-7.834z" fill-rule="evenodd"/><path clip-rule="evenodd" d="m149.331 101.919c4.911 0 7.373 3.86 7.373 8.238 0 .403-.072.979-.072.979h-14.487c0 5.242 3.542 8.237 7.733 8.237 3.471 0 5.602-2.275 5.602-2.275l.835 1.267s-2.534 2.492-6.422 2.492c-5.098 0-9.318-3.687-9.318-9.433-.029-6.106 4.133-9.505 8.756-9.505zm5.775 7.806c-.187-4.407-2.823-6.394-5.818-6.394-3.327 0-6.394 2.174-7.042 6.394z" fill-rule="evenodd"/><path d="m161.615 95.1219h1.512v21.1701c0 2.534 1.296 2.822 2.132 2.822.288 0 .547-.043.547-.043v1.411s-.331.072-.648.072c-1.052 0-3.543-.403-3.543-3.787z"/></g></svg>