<svg fill="none" height="200" viewBox="0 0 200 200" width="200" xmlns="http://www.w3.org/2000/svg"><g fill="#fff"><path d="m101.11 60.0002 8.65 12.2449-2.645 3.5263-8.3486-11.6573h-5.0966l10.6722 15.2787-2.645 3.5263-13.2443-18.805h-4.7959l17.7462 25.8595 20.864-29.9735h4.702l-25.566 37.0261-25.5656-37.0261z"/><path clip-rule="evenodd" d="m74.5666 124.823c.3738-.959.5607-2 .5607-3.121 0-.748-.0846-1.46-.2539-2.137-.1622-.677-.402-1.305-.7194-1.883-.3173-.578-.7052-1.1-1.1636-1.566-.4514-.472-.9627-.871-1.534-1.195-.5712-.331-1.1989-.585-1.883-.762-.6841-.183-1.4141-.275-2.1898-.275-1.1567 0-2.211.198-3.1631.593-.9521.388-1.7702.931-2.4543 1.629-.6771.698-1.2025 1.527-1.5763 2.486-.3738.952-.5607 1.989-.5607 3.11s.1869 2.162.5607 3.121c.3738.952.8992 1.777 1.5763 2.475.6841.698 1.5022 1.245 2.4543 1.64.9521.388 2.0064.582 3.1631.582 1.1636 0 2.2215-.194 3.1736-.582.9521-.395 1.7667-.942 2.4437-1.64.6771-.698 1.199-1.523 1.5657-2.475zm-2.687-5.374c.2257.663.3385 1.414.3385 2.253s-.1128 1.594-.3385 2.264c-.2257.663-.5466 1.227-.9627 1.693-.4161.458-.9239.811-1.5233 1.057-.5925.247-1.2625.371-2.01.371-.7476 0-1.4211-.124-2.0206-.371-.5924-.246-1.1002-.599-1.5234-1.057-.4161-.466-.737-1.03-.9626-1.693-.2257-.67-.3386-1.425-.3386-2.264s.1129-1.59.3386-2.253c.2256-.67.5465-1.238.9626-1.703.4232-.466.931-.822 1.5234-1.069.5995-.247 1.273-.37 2.0206-.37.7475 0 1.4175.123 2.01.37.5994.247 1.1072.603 1.5233 1.069.4161.465.737 1.033.9627 1.703z" fill-rule="evenodd"/><path d="m54.1639 129.351v-15.297h-2.1475c-.1269 0-.2363.003-.3279.01-.0917.007-.1763.025-.2539.053-.0706.028-.1376.074-.201.138-.0635.063-.1234.148-.1799.253l-4.5171 8.474c-.1199.226-.2328.462-.3386.709-.1058.24-.208.49-.3068.751-.0987-.254-.201-.501-.3067-.741-.0988-.239-.2081-.472-.328-.698l-4.5807-8.495c-.0564-.105-.1163-.19-.1798-.253-.0564-.064-.1234-.11-.201-.138-.0705-.028-.1516-.046-.2433-.053s-.201-.01-.3279-.01h-2.1476v15.297h2.5072v-9.881c0-.191-.007-.399-.0211-.624-.0141-.226-.0318-.455-.0529-.688l4.6758 8.717c.2187.416.5537.624 1.005.624h.402c.4514 0 .7864-.208 1.005-.624l4.623-8.685c-.0423.458-.0635.885-.0635 1.28v9.881z"/><path d="m90.7566 116.391h-4.6124v12.96h-2.8457v-12.96h-4.6124v-2.337h12.0705z"/><path d="m95.7204 129.351h2.8563v-15.297h-2.8563z"/><path d="m111.893 129.351h-2.571l-6.178-15.297h2.285c.247 0 .448.059.603.179s.272.275.349.466l3.608 9.33c.12.304.232.639.338 1.005.113.36.219.737.318 1.132.084-.395.176-.772.275-1.132.098-.366.208-.701.328-1.005l3.586-9.33c.056-.162.166-.31.328-.444.169-.134.374-.201.613-.201h2.296z"/><path clip-rule="evenodd" d="m132.304 129.351h2.201l-6.009-15.297h-2.899l-6.019 15.297h2.221c.24 0 .441-.067.603-.201.163-.134.272-.283.328-.445l1.143-3.12h6.337l1.142 3.12c.078.184.194.339.349.466.155.12.356.18.603.18zm-4.686-10.865 1.862 5.089h-4.867l1.852-5.068c.091-.233.187-.504.285-.814.099-.318.194-.656.286-1.016.099.36.197.695.296 1.005s.194.578.286.804z" fill-rule="evenodd"/><path d="m148.247 116.391h-4.612v12.96h-2.846v-12.96h-4.612v-2.337h12.07z"/><path d="m156.067 120.56v-4.243h6.792v-2.263h-9.648v15.297h9.648v-2.275h-6.792v-4.327h5.353v-2.189z"/><path d="m112.073 138.426c.065 0 .122.025.172.075l.468.507c-.259.32-.578.566-.957.736-.376.171-.829.256-1.358.256-.473 0-.899-.081-1.278-.242-.376-.162-.698-.387-.965-.675-.268-.288-.473-.632-.617-1.031-.141-.4-.212-.836-.212-1.309 0-.479.077-.917.229-1.314.153-.4.368-.743.644-1.031.279-.288.611-.512.996-.67.385-.162.811-.243 1.278-.243.465 0 .876.077 1.235.229.361.153.668.353.921.6l-.397.551c-.023.035-.054.066-.092.092-.036.027-.086.04-.15.04-.044 0-.09-.012-.137-.035-.047-.027-.098-.058-.154-.093-.056-.038-.121-.079-.194-.123-.074-.044-.159-.084-.256-.119-.097-.038-.21-.069-.339-.093-.127-.026-.274-.039-.441-.039-.285 0-.547.051-.785.154-.235.1-.437.247-.608.441-.17.191-.303.426-.397.705-.094.276-.141.592-.141.948 0 .358.05.677.15.956.103.279.241.514.415.705.173.191.377.338.612.441.235.1.488.15.758.15.162 0 .307-.009.437-.026.132-.018.252-.046.361-.084.112-.038.216-.087.313-.146.1-.061.199-.136.295-.224.03-.027.061-.048.093-.062.032-.018.066-.027.101-.027z"/><path clip-rule="evenodd" d="m122.424 139.929h-.917c-.102 0-.186-.025-.251-.074-.064-.053-.113-.118-.145-.194l-.476-1.301h-2.641l-.476 1.301c-.023.067-.069.129-.136.185-.068.056-.152.083-.252.083h-.925l2.508-6.373h1.208zm-2.093-2.406-.776-2.12c-.038-.094-.078-.206-.119-.335-.041-.13-.083-.269-.124-.419-.038.15-.078.291-.119.423-.041.129-.081.242-.119.339l-.771 2.112z" fill-rule="evenodd"/><path clip-rule="evenodd" d="m129.7 133.706c-.311-.1-.68-.15-1.106-.15h-2.072v6.373h1.186v-2.243h.886c.414 0 .776-.052 1.084-.154.312-.103.57-.247.776-.432.206-.186.36-.406.463-.662.103-.258.154-.542.154-.85 0-.297-.05-.57-.15-.82-.097-.25-.247-.464-.449-.644-.203-.179-.46-.319-.772-.418zm-.538 2.975c-.161.053-.351.079-.568.079h-.886v-2.287h.886c.22 0 .411.026.573.079.161.05.295.123.401.22s.185.215.238.353.079.292.079.463c0 .179-.026.342-.079.489-.053.144-.134.267-.242.37-.106.1-.24.178-.402.234z" fill-rule="evenodd"/><path d="m136.609 139.929h-1.191v-6.373h1.191z"/><path d="m144.004 134.53h1.922v-.974h-5.03v.974h1.922v5.399h1.186z"/><path clip-rule="evenodd" d="m155.039 139.929h-.916c-.103 0-.187-.025-.252-.074-.064-.053-.113-.118-.145-.194l-.476-1.301h-2.641l-.476 1.301c-.023.067-.069.129-.136.185-.068.056-.152.083-.251.083h-.926l2.508-6.373h1.208zm-2.093-2.406-.776-2.12c-.038-.094-.078-.206-.119-.335-.041-.13-.082-.269-.124-.419-.038.15-.077.291-.119.423-.041.129-.08.242-.119.339l-.771 2.112z" fill-rule="evenodd"/><path d="m162.871 139.929v-.978h-2.548v-5.395h-1.186v6.373z"/><path d="m40.6453 139.929 2.5742-6.373h-.9565c-.0999 0-.1851.028-.2557.083-.0675.056-.1131.118-.1366.186l-1.4943 3.887c-.0499.127-.0955.266-.1366.419-.0412.15-.0794.307-.1146.472-.0412-.165-.0852-.322-.1323-.472-.044-.153-.0911-.292-.141-.419l-1.5031-3.887c-.0323-.08-.0808-.144-.1455-.194-.0646-.05-.1484-.075-.2512-.075h-.9521l2.5742 6.373z"/><path d="m48.6838 136.267v-1.768h2.8299v-.943h-4.02v6.373h4.02v-.947h-2.8299v-1.803h2.2304v-.912z"/><path d="m61.5521 133.556v6.373h-.6083c-.094 0-.1734-.014-.238-.044-.0617-.032-.122-.085-.1807-.158l-3.328-4.249c.0177.193.0265.373.0265.537v3.914h-1.0447v-6.373h.6215c.05 0 .0926.003.1278.009.0382.002.0706.011.097.026.0294.012.0573.031.0838.057.0264.024.0558.056.0881.097l3.3412 4.267c-.0088-.103-.0162-.204-.022-.304-.0059-.1-.0089-.193-.0089-.278v-3.874z"/><path d="m69.1161 134.53h1.9218v-.974h-5.0294v.974h1.9219v5.399h1.1857z"/><path d="m78.0518 138.973c.2292 0 .4334-.038.6127-.115.1822-.076.335-.183.4584-.321.1234-.139.2174-.306.2821-.503.0676-.197.1014-.417.1014-.661v-3.817h1.1857v3.817c0 .379-.0617.73-.1851 1.053-.1205.321-.2954.598-.5246.833-.2262.233-.5025.415-.8287.547-.3261.129-.6935.194-1.1019.194-.4114 0-.7802-.065-1.1064-.194-.3262-.132-.6039-.314-.8331-.547-.2263-.235-.4011-.512-.5245-.833-.1205-.323-.1807-.674-.1807-1.053v-3.817h1.1857v3.812c0 .244.0323.465.0969.662.0676.197.1631.366.2866.507.1263.138.2791.245.4584.321.1822.077.3879.115.6171.115z"/><path clip-rule="evenodd" d="m89.5491 139.929h1.0712l-1.5957-2.353c-.0529-.083-.1117-.153-.1763-.212-.0646-.062-.1352-.115-.2116-.159.2234-.067.4217-.16.5951-.277.1763-.118.3232-.254.4408-.41.1205-.156.2116-.329.2733-.52.0646-.191.0969-.394.0969-.609 0-.27-.047-.517-.141-.74-.0941-.226-.241-.42-.4408-.582-.1969-.162-.4511-.287-.7626-.375-.3085-.091-.6788-.136-1.1108-.136h-1.9438v6.373h1.1857v-2.49h.5069c.1175 0 .2057.016.2645.049.0617.032.1175.086.1675.163l1.34 2.04c.0911.159.238.238.4407.238zm-1.3972-3.424c-.1646.055-.3585.083-.5819.083h-.7405v-2.115h.7581c.4379 0 .7626.086.9742.26.2145.173.3218.421.3218.745 0 .161-.0265.31-.0794.445s-.1337.252-.2424.352c-.1058.097-.2424.174-.4099.23z" fill-rule="evenodd"/><path d="m96.1132 134.499v1.768h2.2303v.912h-2.2303v1.803h2.8298v.947h-4.02v-6.373h4.02v.943z"/></g></svg>