<svg fill="none" height="200" viewBox="0 0 200 200" width="200" xmlns="http://www.w3.org/2000/svg"><path d="m118.44 125.965-9.096-26.0531 9.096-25.4887h-8.532l-8.531 25.4887 8.531 26.0531zm-32.1871-23.056c5.6406.211 7.2976 1.445 7.2976 6.522v5.393c0 2.398-.5288 4.795-2.9261 4.795-2.1153 0-2.6088-2.327-2.6088-4.195v-6.311h-7.0156v4.971c0 4.583 1.4102 11.916 9.7654 11.916 6.5925 0 9.8356-4.654 9.8356-10.823v-7.403c0-4.936-2.7143-6.981-3.9834-7.8621 1.2691-.8813 3.9834-2.785 3.9834-7.7206v-7.3681c0-6.1695-3.2431-10.8231-9.8356-10.8231-8.3552-.0352-9.7654 7.2976-9.7654 11.8807v4.9708h7.0508v-6.3105c0-1.8685.4583-4.1952 2.6088-4.1952 2.3973 0 2.9261 2.3973 2.9261 4.7945v5.3939c0 5.0414-1.6569 6.3105-7.2976 6.522v5.8527z" fill="#fff"/></svg>