<svg fill="none" height="200" viewBox="0 0 200 200" width="200" xmlns="http://www.w3.org/2000/svg"><path d="m53.6353 93.8171c-5.6941 0-10.1434 4.3225-10.1434 10.1089 0 5.787 4.3368 10.073 10.1434 10.073s10.2189-4.36 10.2189-10.11c0-5.7124-4.3368-10.0719-10.2189-10.0719zm.0385 16.0109c-3.2427 0-5.6188-2.518-5.6188-5.9 0-3.421 2.3377-5.9378 5.5803-5.9378 3.2811 0 5.6558 2.5558 5.6558 5.9378s-2.3747 5.9-5.6173 5.9zm11.4239-11.6129h2.8286v15.4089h4.5246v-19.4313h-7.3532zm-32.9927-.2263c2.3761 0 4.2614 1.4655 4.9771 3.6452h4.7892c-.8679-4.6597-4.7138-7.8169-9.7279-7.8169-5.6942 0-10.1434 4.3225-10.1434 10.1109 0 5.788 4.3368 10.072 10.1434 10.072 4.9017 0 8.823-3.157 9.6909-7.855h-4.7522c-.6787 2.179-2.564 3.683-4.9401 3.683-3.2811 0-5.5804-2.518-5.5804-5.9.0014-3.421 2.2637-5.9392 5.5434-5.9392zm118.963 4.0592-3.318-.488c-1.583-.225-2.714-.751-2.714-1.9918 0-1.3531 1.471-2.029 3.468-2.029 2.187 0 3.583.9391 3.885 2.4798h4.374c-.491-3.9083-3.508-6.2005-8.145-6.2005-4.789 0-7.956 2.443-7.956 5.9005 0 3.307 2.074 5.225 6.259 5.825l3.318.488c1.622.225 2.527.865 2.527 2.067 0 1.541-1.584 2.18-3.771 2.18-2.678 0-4.186-1.09-4.412-2.743h-4.449c.415 3.796 3.393 6.464 8.823 6.464 4.94 0 8.22-2.255 8.22-6.127 0-3.457-2.375-5.261-6.109-5.825zm-80.8794-15.8602c-1.659 0-2.904 1.2023-2.904 2.8556 0 1.6534 1.2436 2.8557 2.904 2.8557 1.6591 0 2.904-1.2023 2.904-2.8557 0-1.6533-1.2449-2.8556-2.904-2.8556zm66.4014 14.6582c0-4.2089-2.564-7.0275-7.994-7.0275-5.128 0-7.993 2.5938-8.56 6.5775h4.488c.226-1.5407 1.433-2.8184 3.997-2.8184 2.3 0 3.432 1.0145 3.432 2.2552 0 1.6162-2.075 2.0292-4.639 2.2922-3.469.376-7.767 1.578-7.767 6.088 0 3.496 2.602 5.75 6.75 5.75 3.242 0 5.278-1.353 6.297-3.496.151 1.917 1.584 3.157 3.583 3.157h2.639v-4.021h-2.225v-8.757zm-4.45 4.886c0 2.594-2.262 4.51-5.015 4.51-1.698 0-3.13-.714-3.13-2.216 0-1.917 2.3-2.443 4.412-2.668 2.036-.188 3.167-.639 3.733-1.504zm-24.019-11.9149c-2.527 0-4.638 1.0529-6.146 2.8186v-10.6357h-4.5248v27.624h4.4488v-2.555c1.509 1.841 3.658 2.931 6.222 2.931 5.43 0 9.541-4.284 9.541-10.072 0-5.7884-4.186-10.1109-9.541-10.1109zm-.678 16.0109c-3.243 0-5.619-2.518-5.619-5.9s2.413-5.9378 5.656-5.9378c3.281 0 5.58 2.5188 5.58 5.9378 0 3.382-2.375 5.9-5.617 5.9zm-20.8149-16.0109c-2.941 0-4.8647 1.2023-5.9959 2.894v-2.5184h-4.4876v19.4303h4.5246v-10.56c0-2.97 1.8853-5.0742 4.6755-5.0742 2.6023 0 4.223 1.8412 4.223 4.5102v11.125h4.5246v-11.462c.0014-4.8874-2.5241-8.3449-7.4642-8.3449zm92.1169 9.4719c0-5.562-4.072-9.4705-9.54-9.4705-5.806 0-10.068 4.3596-10.068 10.1095 0 6.051 4.563 10.072 10.144 10.072 4.714 0 8.409-2.782 9.351-6.727h-4.714c-.679 1.729-2.338 2.706-4.563 2.706-2.904 0-5.091-1.804-5.581-4.961h14.97v-1.729zm-14.706-1.504c.717-2.7063 2.753-4.021 5.091-4.021 2.564 0 4.524 1.4655 4.977 4.021z" fill="#fff"/></svg>