<svg fill="none" height="200" viewBox="0 0 200 200" width="200" xmlns="http://www.w3.org/2000/svg"><g fill="#fff"><path d="m39.4921 92.1153-3.0821 1.8265c-.5762-1.0002-1.1252-1.6525-1.647-1.9569-.5436-.3479-1.2448-.5219-2.1037-.5219-1.0546 0-1.9297.299-2.6255.8969-.6958.5871-1.0437 1.3264-1.0437 2.2179 0 1.2285.9132 2.2178 2.7397 2.9679l2.5113 1.0274c2.0439.8262 3.5387 1.8369 4.4846 3.0329.9458 1.185 1.4187 2.642 1.4187 4.371 0 2.315-.7718 4.229-2.3156 5.74-1.5547 1.522-3.4844 2.283-5.7892 2.283-2.1852 0-3.9899-.647-5.4141-1.941-1.4024-1.293-2.2776-3.114-2.6255-5.463l3.8486-.848c.1739 1.479.4783 2.501.9132 3.066.7828 1.087 1.9243 1.631 3.4246 1.631 1.185 0 2.1689-.397 2.9516-1.19.7828-.794 1.1742-1.8 1.1742-3.017 0-.49-.0707-.935-.212-1.338-.1305-.413-.3425-.788-.636-1.125-.2827-.348-.6523-.668-1.1089-.962-.4566-.304-1.0002-.592-1.6308-.864l-2.4298-1.011c-3.4463-1.4571-5.1695-3.588-5.1695-6.3929 0-1.8916.723-3.4735 2.1689-4.7454 1.446-1.2829 3.2452-1.9243 5.3978-1.9243 2.9027 0 5.1695 1.4133 6.8002 4.2399z"/><path d="m59.2568 107.428h-10.7792l-2.8049 6.115h-4.0932l12.4589-26.7602 12.0187 26.7602h-4.1584zm-1.5492-3.571-3.7344-8.5617-3.9138 8.5617z"/><path d="m73.0204 88.3646v21.6074h7.4036v3.571h-11.2033v-25.1784z"/><path d="m89.3442 91.9359v21.6071h-3.7996v-21.6071h-5.7892v-3.5713h15.3617v3.5713z"/><path d="m121.388 91.9359h-8.773v6.0501h8.464v3.571h-8.464v11.986h-3.8v-25.1784h12.573z"/><path d="m128.45 97.6599v9.1161c0 2.631 1.038 3.946 3.114 3.946 2.077 0 3.115-1.315 3.115-3.946v-9.1161h3.669v9.1971c0 1.272-.157 2.37-.473 3.294-.304.827-.831 1.571-1.581 2.235-1.24 1.076-2.816 1.614-4.73 1.614-1.902 0-3.473-.538-4.713-1.614-.761-.664-1.299-1.408-1.614-2.235-.304-.739-.457-1.837-.457-3.294v-9.1971z"/><path d="m142.98 97.6599h3.685v1.4676c1.283-1.2719 2.729-1.9079 4.338-1.9079 1.848 0 3.289.5816 4.321 1.7449.892.9893 1.338 2.6035 1.338 4.8435v9.735h-3.686v-8.871c0-1.565-.217-2.647-.652-3.245-.424-.609-1.196-.913-2.316-.913-1.217 0-2.082.402-2.593 1.206-.5.794-.75 2.18-.75 4.159v7.664h-3.685z"/><path d="m173.018 86h3.686v27.543h-3.686v-1.663c-1.446 1.413-3.082 2.12-4.908 2.12-2.175 0-3.98-.794-5.415-2.381-1.424-1.62-2.136-3.642-2.136-6.066 0-2.37.712-4.349 2.136-5.9362 1.414-1.5982 3.191-2.3972 5.333-2.3972 1.859 0 3.522.761 4.99 2.283zm-8.708 19.553c0 1.522.408 2.761 1.223 3.718.837.967 1.892 1.451 3.164 1.451 1.359 0 2.457-.467 3.294-1.402.837-.968 1.255-2.196 1.255-3.686 0-1.489-.418-2.718-1.255-3.685-.837-.946-1.925-1.419-3.262-1.419-1.261 0-2.315.478-3.163 1.435-.838.968-1.256 2.164-1.256 3.588z"/></g></svg>