<svg fill="none" height="200" viewBox="0 0 200 200" width="200" xmlns="http://www.w3.org/2000/svg"><path clip-rule="evenodd" d="m49.0659 87c3.3748 0 6.075 1.0352 8.7546 3.3553.2197.1943.3434.4487.3518.7179.0071.2444-.0802.4802-.2475.672l-.0524.0562-1.5397 1.5709c-.2137.266-.4481.3341-.6088.3439-.1757.0115-.447-.0377-.7393-.3294-1.6265-1.4145-3.8317-2.2677-5.883-2.2677-4.7119 0-8.5456 3.9681-8.5456 8.846 0 4.8579 3.8492 8.8099 8.5805 8.8099 2.5847 0 4.3529-1.085 5.8791-2.259.3803-.295.84-.321 1.1894-.072l.0571.044 1.6432 1.603c.1662.145.2693.367.2773.616.0091.287-.1067.579-.3106.782-2.3722 2.298-5.4162 3.511-8.8061 3.511-7.2046 0-13.0659-5.816-13.0659-12.964 0-7.1882 5.8613-13.036 13.0659-13.036zm63.8781 0c3.375 0 6.075 1.0352 8.755 3.3553.219.1943.343.4485.351.7179.007.2442-.08.4799-.247.672l-.053.0562-1.539 1.5709c-.214.266-.448.3341-.609.3439-.177.0115-.447-.0377-.74-.3294-1.626-1.4145-3.831-2.2677-5.883-2.2677-4.712 0-8.545 3.9681-8.545 8.846 0 4.8579 3.849 8.8099 8.581 8.8099 2.584 0 4.352-1.085 5.879-2.259.38-.295.84-.321 1.189-.072l.057.044 1.643 1.603c.166.145.269.367.278.616.009.287-.107.579-.311.782-2.372 2.298-5.417 3.511-8.806 3.511-7.205 0-13.0663-5.816-13.0663-12.964 0-7.1882 5.8613-13.036 13.0663-13.036zm-45.4813.3526c.5061 0 .9519.4242.9868.9221l.0024.0626v23.3257c0 .503-.426.948-.9261.983l-.0631.002h-2.3306c-.5056 0-.9518-.425-.9863-.923l-.0024-.062v-23.3257c0-.5035.4259-.9478.9261-.9825l.0626-.0022zm19.5625 0c4.4203 0 8.0165 3.5242 8.0165 7.8556 0 3.0914-1.8828 5.8248-4.9483 7.2398l-.1515.068 4.6734 8.646c.1781.329.1757.721-.0059 1.022-.1662.275-.455.441-.7996.462l-.0746.002h-2.7549c-.3875 0-.6901-.224-.8246-.447l-.025-.045-4.6087-9.163h-4.817v8.67c0 .503-.4259.948-.9261.983l-.063.002h-2.2957c-.5231 0-.953-.407-.9868-.92l-.0019-.065v-23.3257c0-.521.4089-.9492.9237-.9827l.065-.002zm44.3158 0c.505 0 .952.4241.987.9221l.002.0626v20.4027h9.251c.524 0 .954.408.988.92l.002.065v1.938c0 .521-.409.95-.925.983l-.065.002h-12.571c-.523 0-.953-.407-.987-.92l-.002-.065v-23.3257c0-.521.409-.9492.924-.9827l.065-.002zm31.18 0c.524 0 .954.4073.987.9202l.002.0645v1.9732c0 .5214-.409.9496-.924.9831l-.065.002h-10.84v6.5571h9.11c.506 0 .952.4242.987.9223l.002.0626v1.9734c0 .521-.409.949-.924.982l-.065.003h-9.11v6.944h10.84c.524 0 .954.408.987.92l.002.065v1.938c0 .521-.409.95-.924.983l-.065.002h-14.125c-.523 0-.953-.407-.987-.92l-.002-.065v-23.3257c0-.521.409-.9492.924-.9825l.065-.0022zm-75.7778 4.0486h-5.9676v7.931h5.9676c2.1628 0 3.99-1.856 3.99-4.0535 0-2.1018-1.8272-3.8775-3.99-3.8775z" fill="#fff" fill-rule="evenodd"/></svg>