<svg fill="none" height="200" viewBox="0 0 200 200" width="200" xmlns="http://www.w3.org/2000/svg"><g fill="#fff"><path clip-rule="evenodd" d="m31.7049 86c-.1373 0-.2691.0546-.3662.1517-.0972.0972-.1518.2289-.1518.3663v15.557c0 .285.2324.518.518.518h40.446c.1374 0 .2692-.055.3663-.152.0972-.097.1517-.229.1517-.366v-15.557c0-.1374-.0545-.2691-.1517-.3663-.0971-.0971-.2289-.1517-.3663-.1517h-40.4474zm35.518 11.4072c.0342.0002.068-.0064.0996-.0193s.0603-.032.0845-.0561c.0242-.024.0434-.0526.0565-.0842.0131-.0315.0198-.0653.0198-.0994v-5.7036c0-.0687-.0272-.1346-.0758-.1831-.0486-.0486-.1145-.0759-.1832-.0759h-30.5928c-.0686 0-.1345.0273-.1831.0759-.0486.0485-.0759.1144-.0759.1831v5.7036c0 .1428.1148.259.259.259h30.5928z" fill-rule="evenodd"/><path d="m36.3725 109.334c0-.068-.0134-.136-.0394-.198-.026-.063-.0642-.12-.1123-.168-.0481-.049-.1052-.087-.168-.113-.0629-.026-.1302-.039-.1983-.039h-4.151c-.068 0-.1353.013-.1982.039-.0628.026-.1199.064-.168.113-.0481.048-.0863.105-.1123.168-.0261.062-.0395.13-.0395.198v4.148c0 .286.2324.518.518.518h4.1482c.0681 0 .1354-.013.1983-.039.0628-.026.1199-.065.168-.113s.0863-.105.1123-.168.0394-.13.0394-.198v-4.148zm95.4075 0c0-.068-.014-.136-.04-.198-.026-.063-.064-.12-.112-.168-.048-.049-.105-.087-.168-.113s-.13-.039-.198-.039h-4.151c-.068 0-.136.013-.198.039-.063.026-.12.064-.169.113-.048.048-.086.105-.112.168-.026.062-.039.13-.039.198v4.148c0 .286.232.518.518.518h4.148c.068 0 .135-.013.198-.039s.12-.065.168-.113.086-.105.113-.168c.026-.063.039-.13.039-.198v-4.148zm-52.8894 0c0-.068.0134-.136.0394-.198.026-.063.0642-.12.1123-.168.0481-.049.1052-.087.168-.113.0629-.026.1302-.039.1983-.039h40.4464c.068 0 .135.013.198.039s.12.064.168.113c.048.048.086.105.112.168.026.062.04.13.04.198v4.148c0 .068-.014.135-.04.198s-.064.12-.112.168-.105.087-.168.113-.13.039-.198.039h-40.4464c-.0681 0-.1354-.013-.1983-.039-.0628-.026-.1199-.065-.168-.113s-.0863-.105-.1123-.168-.0394-.13-.0394-.198z"/><path clip-rule="evenodd" d="m126.594 86.518c0-.1374.055-.2691.152-.3663.097-.0971.229-.1517.366-.1517h40.446c.138 0 .269.0546.366.1517.098.0972.152.2289.152.3663v15.557c0 .137-.054.269-.152.366-.097.097-.228.152-.366.152h-40.447c-.138 0-.269-.055-.367-.152-.097-.097-.151-.229-.151-.366zm36.036 4.6676c.144 0 .261.1162.261.259v5.7036c0 .0687-.028.1346-.076.1831-.049.0486-.115.0759-.183.0759h-30.593c-.069 0-.135-.0273-.183-.0759-.049-.0485-.076-.1144-.076-.1831v-5.7036c0-.1428.116-.259.259-.259z" fill-rule="evenodd"/><path d="m79.4086 86c-.1374 0-.2692.0546-.3663.1517-.0972.0972-.1517.2289-.1517.3663v4.1482c0 .287.2324.518.518.518h35.5184c.144 0 .26.1176.26.2604v5.7036c0 .0687-.027.1346-.076.1831-.048.0486-.114.0759-.183.0759h-35.518c-.0682-.0002-.1357.0131-.1987.039-.063.026-.1203.0641-.1685.1122-.0483.0481-.0866.1053-.1127.1682-.0261.063-.0395.1305-.0395.1986v4.1478c0 .287.2324.518.518.518h40.4464c.137 0 .269-.054.366-.151s.152-.229.152-.367v-15.5522c0-.0681-.014-.1357-.039-.1987-.026-.063-.065-.1202-.113-.1685-.048-.0482-.105-.0865-.168-.1126-.063-.0262-.13-.0396-.198-.0396h-40.4464z"/></g></svg>