<svg width="117" height="48" viewBox="0 0 117 48" fill="none" xmlns="http://www.w3.org/2000/svg">
<path d="M53.998 17.3599H53.3998C50.4487 17.3599 47.8963 18.1974 45.8225 19.7527V7.66899H40.9173V43.4417H45.1845L45.5035 41.4078C47.5773 43.0828 50.2891 43.9202 53.4397 43.9202H53.5195C57.1087 43.8804 60.1795 42.6441 62.3729 40.331C64.6062 37.9382 65.8026 34.5882 65.8026 30.6401C65.8425 22.7836 61.2164 17.6391 53.998 17.3599ZM53.6391 39.7328H53.4397C49.1326 39.7328 46.5005 36.2632 46.5005 30.6401C46.5005 25.0169 49.1725 21.5474 53.5195 21.5474H53.9581C57.986 21.7866 60.4586 25.2164 60.4586 30.6002C60.4188 36.1436 57.8265 39.6132 53.6391 39.7328ZM79.5613 17.3599C75.9322 17.3599 72.8215 18.5962 70.5882 20.989C68.3549 23.3819 67.1585 26.7318 67.1585 30.68C67.1585 38.7757 71.1067 44 79.6012 44C83.2303 44 86.341 42.7637 88.5743 40.4108C90.8076 38.0179 92.004 34.668 92.004 30.7198C92.004 22.5842 87.0987 17.3599 79.5613 17.3599ZM79.5613 39.7328C75.2543 39.7328 72.6221 36.2632 72.6221 30.6401C72.6221 25.0169 75.2941 21.5474 79.6411 21.5474C83.9482 21.5474 86.5803 25.0169 86.5803 30.6401C86.5803 36.2632 83.8684 39.7328 79.5613 39.7328ZM98.5843 31.8764C98.6241 37.0209 101.256 39.7328 106.042 39.7328C110.748 39.7328 113.5 37.1406 113.739 36.8614L115.852 40.331C115.852 40.331 112.463 43.9202 105.404 43.9202C98.345 43.9202 93.3201 39.0548 93.3201 30.7198C93.3201 22.3051 98.5843 17.3998 105.404 17.3998C112.263 17.3998 116.291 22.5444 116.291 29.8425L116.251 31.8764H98.5843ZM105.244 21.3081C100.778 21.3081 98.8235 24.9771 98.5843 28.0877H111.386C111.386 24.6181 109.671 21.3081 105.244 21.3081Z" fill="black"/>
<path d="M31.5853 19.7129L28.3948 16.5224L29.7906 15.0867L31.5853 13.2921L34.8156 16.5224L31.5853 19.7129ZM31.5853 10.4207L28.3948 7.23031L30.2293 5.39581L31.5853 4L34.8156 7.23031L31.5853 10.4207ZM36.2513 15.0867L33.0209 11.8564L34.8156 10.1017L36.2513 8.666L39.4417 11.8564L36.2513 15.0867Z" fill="black"/>
<path d="M17.4277 39.015C10.2493 39.015 5.58325 33.2323 5.58325 24.7777C5.58325 16.323 10.4885 10.5404 17.5872 10.5404C22.8116 10.5404 25.1246 13.1725 26.9192 15.0867L30.1097 11.8564C28.4347 10.1017 25.0449 5.8345 17.4277 5.8345C8.05583 5.8345 0 12.8933 0 24.8175C0 36.7817 7.21835 43.8804 17.1884 43.8804C24.6062 43.8804 28.6341 39.9721 30.1894 37.9382L26.8794 34.6281C25.4437 36.3031 22.333 39.015 17.4277 39.015Z" fill="black"/>
</svg>
