<svg width="269" height="48" viewBox="0 0 269 48" fill="none" xmlns="http://www.w3.org/2000/svg">
<g clip-path="url(#clip0_1_25)">
<path d="M54.232 13.4007C44.4706 13.4007 36.8433 20.8108 36.8433 30.7308C36.8433 40.6508 44.2779 47.9976 54.232 47.9976C64.1862 47.9976 71.75 40.524 71.75 30.6674C71.75 20.8742 64.3155 13.4007 54.232 13.4007ZM54.2979 40.8484C48.7391 40.8484 44.6657 36.5311 44.6657 30.7333C44.6657 24.8696 48.6732 20.5547 54.232 20.5547C59.8567 20.5547 63.9276 24.9354 63.9276 30.7333C63.9276 36.5311 59.8567 40.8484 54.2979 40.8484ZM73.8818 20.9401H78.7308V47.3561H86.4873V14.0446H73.8818V20.9401ZM17.3228 20.5523C21.3962 20.5523 24.6281 23.0646 25.855 26.8014H34.0652C32.5773 18.8132 25.9843 13.4007 17.3887 13.4007C7.62722 13.4007 0 20.8108 0 30.7333C0 40.6557 7.43452 48 17.3887 48C25.7916 48 32.5138 42.5875 34.0017 34.5335H25.855C24.6915 38.2702 21.4596 40.8484 17.3863 40.8484C11.7616 40.8484 7.81991 36.5311 7.81991 30.7333C7.82235 24.8696 11.7006 20.5523 17.3228 20.5523ZM221.26 27.5112L215.572 26.6745C212.857 26.2891 210.918 25.3867 210.918 23.2597C210.918 20.9401 213.44 19.7815 216.865 19.7815C220.614 19.7815 223.006 21.3913 223.524 24.0329H231.022C230.18 17.3326 225.009 13.4031 217.06 13.4031C208.85 13.4031 203.42 17.5911 203.42 23.5183C203.42 29.1868 206.976 32.4748 214.15 33.5041L219.838 34.3408C222.619 34.7262 224.17 35.8238 224.17 37.8849C224.17 40.5265 221.455 41.6216 217.706 41.6216C213.116 41.6216 210.53 39.7532 210.142 36.9189H202.515C203.227 43.4266 208.333 48 217.64 48C226.109 48 231.731 44.1339 231.731 37.497C231.731 31.5699 227.66 28.4771 221.26 27.5112ZM82.6091 0.321968C79.765 0.321968 77.6308 2.38305 77.6308 5.21734C77.6308 8.05163 79.7626 10.1127 82.6091 10.1127C85.4531 10.1127 87.5874 8.05163 87.5874 5.21734C87.5874 2.38305 85.4531 0.321968 82.6091 0.321968ZM196.439 25.4501C196.439 18.2351 192.044 13.4031 182.736 13.4031C173.945 13.4031 169.033 17.8497 168.062 24.6793H175.755C176.143 22.0377 178.212 19.8474 182.607 19.8474C186.551 19.8474 188.49 21.5865 188.49 23.7134C188.49 26.4843 184.934 27.1916 180.538 27.6429C174.592 28.2868 167.223 30.3479 167.223 38.08C167.223 44.073 171.684 47.9366 178.794 47.9366C184.353 47.9366 187.844 45.617 189.59 41.9436C189.849 45.2291 192.305 47.3561 195.732 47.3561H200.257V40.463H196.442V25.4501H196.439ZM188.812 33.8261C188.812 38.2727 184.934 41.5582 180.214 41.5582C177.304 41.5582 174.848 40.3338 174.848 37.758C174.848 34.4725 178.792 33.57 182.412 33.1846C185.902 32.8626 187.841 32.0894 188.812 30.6064V33.8261ZM147.637 13.4007C143.305 13.4007 139.685 15.2057 137.1 18.2326V0H129.343V47.3561H136.97V42.9754C139.556 46.1316 143.241 48 147.637 48C156.945 48 163.991 40.6557 163.991 30.7333C163.991 20.8108 156.815 13.4007 147.637 13.4007ZM146.473 40.8484C140.914 40.8484 136.841 36.5311 136.841 30.7333C136.841 24.9354 140.978 20.5547 146.537 20.5547C152.161 20.5547 156.103 24.872 156.103 30.7333C156.103 36.5311 152.032 40.8484 146.473 40.8484ZM110.791 13.4007C105.749 13.4007 102.452 15.4618 100.512 18.3619V14.0446H92.8194V47.3536H100.576V29.2503C100.576 24.1598 103.808 20.5523 108.591 20.5523C113.052 20.5523 115.83 23.7085 115.83 28.2844V47.3561H123.587V27.7063C123.589 19.3278 119.26 13.4007 110.791 13.4007ZM268.706 29.6381C268.706 20.1035 261.726 13.4031 252.352 13.4031C242.398 13.4031 235.092 20.8767 235.092 30.7333C235.092 41.107 242.915 48 252.481 48C260.562 48 266.897 43.2315 268.511 36.4677H260.43C259.267 39.4313 256.423 41.107 252.608 41.107C247.63 41.107 243.881 38.0141 243.042 32.6017H268.704V29.6381H268.706ZM243.495 27.0599C244.725 22.4207 248.215 20.1669 252.223 20.1669C256.618 20.1669 259.979 22.6792 260.755 27.0599H243.495Z" fill="black"/>
</g>
<defs>
<clipPath id="clip0_1_25">
<rect width="268.706" height="48" fill="white"/>
</clipPath>
</defs>
</svg>
