<svg width="64" height="64" viewBox="0 0 64 64" fill="none" xmlns="http://www.w3.org/2000/svg">
<g clip-path="url(#clip0_603_40)">
<path fill-rule="evenodd" clip-rule="evenodd" d="M0 0V63.2H12.3102V57.4252H5.7735V5.7735H57.4252V37.6599H63.2V0H0Z" fill="black"/>
<path fill-rule="evenodd" clip-rule="evenodd" d="M18.4 63.2H22.4V44H18.4V63.2Z" fill="black"/>
<path fill-rule="evenodd" clip-rule="evenodd" d="M35.5703 60.4454C32.1294 60.4454 29.6666 57.789 29.6666 53.9998C29.6666 50.2107 31.8953 47.5157 35.492 47.5157C37.6036 47.5157 39.3631 48.5313 40.5363 50.1721L43.1953 47.5546C41.1227 45.1328 38.503 44 35.4141 44C29.8621 44 25.6 48.3361 25.6 53.9998C25.6 59.6639 29.5097 64 35.5703 64C38.855 64 41.4747 62.5938 43.3514 60.1327L40.5752 57.789C39.3631 59.4687 37.6818 60.4454 35.5703 60.4454Z" fill="black"/>
<path fill-rule="evenodd" clip-rule="evenodd" d="M48.9989 55.6796C49.6153 58.5509 51.8241 60.4454 54.7295 60.4454C56.841 60.4454 58.5223 59.4687 59.7344 57.7891L62.5106 60.1327C60.6339 62.5935 58.0145 63.9997 54.7295 63.9997C48.6693 63.9997 44.7592 59.6637 44.7592 53.9999C44.7592 48.3358 48.6383 44.0001 54.1904 44.0001C58.3502 44.0001 64.0387 46.8947 63.0967 55.6796H48.9989ZM59.3258 52.5937C58.9006 48.6918 56.3735 47.5154 54.6519 47.5154C51.7292 47.5154 49.6133 49.3485 48.935 52.5937H59.3258Z" fill="black"/>
</g>
<defs>
<clipPath id="clip0_603_40">
<rect width="64" height="64" fill="white"/>
</clipPath>
</defs>
</svg>
