<svg fill="none" height="105" viewBox="0 0 296 105" width="296" xmlns="http://www.w3.org/2000/svg"><g fill="#000"><path d="m.043528 76.4152c-.168013-.5816.164791-1.0016.749603-1.0016h3.831959c.3328 0 .66561.2908.74961.5816l4.33278 16.6267h.16478l6.62354-17.1663c.0841-.2488.2908-.4556.7076-.4556h.7496c.4168 0 .6236.2068.7076.4556l6.6753 17.1663h.168l4.2487-16.6267c.084-.2908.4169-.5816.7497-.5816h3.8319c.5815 0 .9177.4168.7497 1.0016l-7.874 27.9998c-.084.333-.4168.582-.7497.582h-.6655c-.3748 0-.6237-.21-.7077-.459l-7.4571-18.8724h-.2068l-7.3764 18.8724c-.12598.249-.29076.459-.70755.459h-.6656c-.33279 0-.66558-.252-.74958-.582z"/><path d="m43.3353 76.2099c0-.4168.3748-.7916.7917-.7916h3.8739c.4168 0 .7917.3748.7917.7916v27.5831c0 .417-.3749.792-.7917.792h-3.8739c-.4169 0-.7917-.375-.7917-.792z"/><path d="m59.9045 75.7496c0-.4168.3748-.7496.7915-.7496h1.0403l17.3312 18.4135h.042v-17.2051c0-.4168.3329-.7916.7917-.7916h3.8319c.4169 0 .7917.3748.7917.7916v28.0386c0 .417-.3748.75-.7917.75h-1.0017l-17.415-19.1247h-.042v17.9157c0 .417-.3328.792-.7917.792h-3.7899c-.4168 0-.7917-.375-.7917-.792v-28.0384z"/><path d="m99.4903 80.4167h-6.3748c-.4589 0-.7917-.3748-.7917-.7916v-3.4152c0-.4168.3328-.7916.7917-.7916h18.2065c.459 0 .792.3748.792.7916v3.4152c0 .4168-.333.7916-.792.7916h-6.375v23.3733c0 .417-.374.791-.791.791h-3.874c-.4171 0-.7917-.374-.7917-.791z"/><path d="m119.891 76.2099c0-.4168.333-.7916.792-.7916h16.956c.459 0 .792.3748.792.7916v3.4152c0 .4168-.333.7916-.792.7916h-12.333v6.8336h10.291c.417 0 .792.3748.792.7916v3.4571c0 .4588-.375.7916-.792.7916h-10.291v7.2924h12.333c.459 0 .792.3749.792.792v3.418c0 .417-.333.792-.792.792h-16.956c-.459 0-.792-.375-.792-.792z"/><path d="m148.179 76.2099c0-.4168.332-.7916.791-.7916h11.916c4.999 0 9.083 4 9.083 8.9596 0 3.832-2.543 6.9563-6.165 8.4168l5.709 10.5813c.291.543 0 1.209-.707 1.209h-4.375c-.375 0-.582-.207-.666-.375l-5.541-11.0405h-4.624v10.6235c0 .417-.375.792-.791.792h-3.832c-.459 0-.792-.375-.792-.792v-27.5831zm12.249 12.4975c2.206 0 4.125-1.9159 4.125-4.2487 0-2.2068-1.915-4.042-4.125-4.042h-6.792v8.2907z"/><path d="m182.389 75.6236c.042-.3328.29-.6236.749-.6236h.666c.333 0 .582.1648.708.4168l9.166 19.6671h.126l9.166-19.6671c.126-.2488.333-.4168.708-.4168h.665c.459 0 .708.2908.75.6236l4.917 27.9964c.126.582-.209.96-.75.96h-3.789c-.375 0-.708-.333-.792-.624l-2.458-15.7896c-.042 0-.126 0-.126 0l-7.293 16.3746c-.084.249-.333.459-.707.459h-.747c-.374 0-.581-.21-.707-.459l-7.377-16.3746s-.084 0-.126 0l-2.417 15.7896c-.042.291-.374.624-.749.624h-3.751c-.543 0-.876-.375-.792-.96z"/><path d="m218.598 76.2099c0-.4168.376-.7916.792-.7916h3.957c.46 0 .792.3748.792.7916v17.0403c0 3.5413 2.418 6.3328 6.043 6.3328s6.085-2.7915 6.085-6.2908v-17.0823c0-.4168.332-.7916.79-.7916h3.959c.416 0 .792.3748.792.7916v17.3311c0 6.3329-5.042 11.457-11.626 11.457-6.54 0-11.584-5.1241-11.584-11.457z"/><path d="m256.562 80.4167h-6.375c-.458 0-.79-.3748-.79-.7916v-3.4152c0-.4168.332-.7916.79-.7916h18.208c.459 0 .791.3748.791.7916v3.4152c0 .4168-.332.7916-.791.7916h-6.375v23.3733c0 .417-.374.791-.792.791h-3.874c-.416 0-.792-.374-.792-.791z"/><path d="m276.964 76.2099c0-.4168.332-.7916.791-.7916h16.957c.457 0 .792.3748.792.7916v3.4152c0 .4168-.335.7916-.792.7916h-12.333v6.8336h10.291c.416 0 .79.3748.79.7916v3.4571c0 .4588-.374.7916-.79.7916h-10.291v7.2924h12.333c.457 0 .792.3749.792.792v3.418c0 .417-.335.792-.792.792h-16.957c-.459 0-.791-.375-.791-.792z"/><path d="m116.039 33.2902c-.01.0387-.015.0771-.02.1181-.007.0458-.012.0891-.014.1349 0 .012-.005.024-.005.0385 0 .0265.007.0506.007.0748.003.0456.005.0891.015.1347.007.041.017.0796.026.1181.01.0386.022.0771.036.1156.015.0386.032.0771.051.1132.017.0362.036.07.058.1061.021.0337.045.0675.07.0988.024.0336.05.0649.079.0962.027.029.058.0578.087.0843.031.0265.06.053.094.0771.036.0265.074.0482.113.0723.022.012.041.029.065.041l30.317 15.1585c.012.0049.024.0072.034.012.017.0073.031.0168.048.0242.014.0071.031.0096.048.0168.024.0096.051.0168.075.0241.024.0072.048.0145.072.0192.015.0025.027.0097.041.0121.015.0024.029.0024.043.0049.027.0048.053.0071.082.0096.029.0024.058.0047.085.0047h.074c.029 0 .056-.0023.085-.0047.026-.0025.053-.0073.082-.0096.014-.0025.028-.0025.043-.0049.014-.0024.026-.0073.041-.0121.024-.0047.048-.012.072-.0192.024-.0073.051-.017.075-.0241.017-.0048.031-.0097.048-.0168.017-.0074.031-.0169.048-.0242.012-.0048.024-.0071.034-.012l30.317-15.1585c.024-.012.041-.029.065-.041.038-.0217.077-.0458.113-.0723.034-.0241.063-.0506.094-.0771s.06-.0553.087-.0843c.029-.0313.053-.0626.079-.0962.024-.0313.049-.0651.07-.0988.022-.0338.039-.0699.058-.1061.019-.0361.036-.0746.051-.1132.014-.0385.026-.077.036-.1156.009-.0385.019-.0771.026-.1181.007-.0456.01-.0891.015-.1347.002-.0242.007-.0483.007-.0748 0-.012-.003-.024-.005-.0385-.002-.0458-.007-.0891-.014-.1349-.005-.0386-.01-.0794-.02-.1181-.009-.0361-.021-.0746-.033-.1107-.015-.0433-.029-.0891-.051-.1301-.005-.0121-.007-.0241-.012-.0338l-15.161-30.31705c-.007-.01445-.019-.02409-.027-.03613-.043-.07949-.093-.15416-.154-.22161-.014-.01686-.026-.03372-.041-.04818-.07-.07226-.149-.1373-.236-.1927-.021-.01445-.043-.02409-.065-.03613-.07-.03854-.144-.06986-.221-.09635-.027-.00964-.053-.01687-.08-.02409-.096-.02409-.195-.04095-.296-.04095-.005 0-.01-.00241-.01-.00241-.012 0-.026.00482-.038.00482-.08.00241-.157.00963-.232.02649-.024.00482-.048.01687-.072.02168-.065.01927-.127.04095-.188.06745-.009.00482-.021.00723-.031.01204-.024.01205-.041.02891-.065.04095-.039.02168-.077.04577-.113.07227-.034.02409-.063.05058-.094.07708s-.06.0554-.087.08431c-.029.03131-.053.06263-.079.09635-.025.03131-.049.06504-.07.09876-.022.03372-.039.06985-.058.10599-.019.03613-.036.07467-.051.11321-.014.03854-.024.07708-.036.11562-.009.03854-.019.07708-.026.11803-.008.04577-.01.08913-.015.1349-.002.02408-.007.04817-.007.07467v27.26758l-13-13.0003c-.06-.0602-.126-.1132-.195-.159-.029-.0192-.063-.0337-.094-.0506-.041-.0216-.08-.0457-.123-.065-.041-.0168-.084-.0265-.125-.0385-.037-.0097-.073-.0241-.109-.0313-.082-.0169-.164-.0241-.248-.0241-.082 0-.166.0096-.248.0241-.038.0072-.072.0216-.111.0313-.043.012-.084.0217-.125.0385-.043.0169-.082.0434-.123.065-.031.0169-.063.0314-.094.0506-.07.0458-.135.0988-.195.159l-13 13.0003v-27.26758c0-.0265-.007-.05059-.007-.07467-.003-.04577-.005-.08913-.015-.1349-.007-.04095-.017-.07949-.026-.11803-.01-.03854-.022-.07708-.037-.11562-.014-.03854-.031-.07708-.05-.11321-.017-.03614-.036-.06986-.058-.10599-.022-.03372-.046-.06745-.07-.09876-.024-.03372-.05-.06504-.079-.09635-.027-.02891-.058-.05781-.087-.08431-.031-.0265-.06-.05299-.094-.07708-.036-.0265-.075-.04818-.113-.07227-.022-.01204-.041-.0289-.065-.04095-.01-.00481-.022-.00722-.031-.01204-.061-.02891-.123-.04818-.186-.06745-.026-.00722-.051-.01927-.077-.02408-.075-.01687-.149-.02409-.229-.0265-.012.00241-.026-.00241-.038-.00241-.005 0-.01.00241-.01.00241-.104 0-.202.01686-.296.04095-.027.00722-.053.01686-.08.02409-.077.02408-.152.05781-.221.09635-.022.01204-.044.02168-.066.03613-.086.0554-.166.11803-.236.1927-.014.01446-.026.03373-.04.04818-.061.06745-.111.14212-.155.22161-.007.01445-.019.02409-.026.03613l-15.161 30.31705c-.005.0122-.007.0217-.012.0338-.019.041-.034.0868-.051.1301-.012.0361-.024.0723-.033.1107zm15.862 1.5537 9.283 9.2835-18.567-9.2835zm31.362 0h9.283l-18.567 9.2835zm.739-2.5268v-23.70254l11.852 23.70254zm-15.158 13.3712v-24.218l12.109 12.1091zm-2.525 0-12.108-12.1089 12.108-12.1091zm-27.009-13.3712 11.851-23.70254v23.70254z"/></g></svg>